Coordinates
version=1
nRows=10
nColumns=40
inDegrees=yes

Units are S.I. units (second, meters, Newtons, ...)
Angles are in degrees.

endheader
time	pelvis_tilt	pelvis_list	pelvis_rotation	pelvis_tx	pelvis_ty	pelvis_tz	hip_flexion_r	hip_adduction_r	hip_rotation_r	knee_angle_r	knee_angle_r_beta	ankle_angle_r	subtalar_angle_r	mtp_angle_r	hip_flexion_l	hip_adduction_l	hip_rotation_l	knee_angle_l	knee_angle_l_beta	ankle_angle_l	subtalar_angle_l	mtp_angle_l	lumbar_extension	lumbar_bending	lumbar_rotation	arm_flex_r	arm_add_r	arm_rot_r	elbow_flex_r	pro_sup_r	wrist_flex_r	wrist_dev_r	arm_flex_l	arm_add_l	arm_rot_l	elbow_flex_l	pro_sup_l	wrist_flex_l	wrist_dev_l
      1.02000000	      1.84518136	     -3.28978669	      2.26870917	     -0.10907142	      0.88431120	      1.42822881	     24.61457886	      2.09563174	    -16.88683985	    -21.54574088	     -0.37604412	     -6.33660829	     -1.49775047	     -1.42391640	    -15.34703536	      5.12420159	      8.37815405	    -24.80982637	     -0.43301316	      2.67065187	     -8.33899284	     -7.58419900	     -7.05499810	      6.46666017	     -5.08133979	     -3.27811921	     -9.19846272	     16.54513955	      8.49013311	     89.95437384	      0.00000000	      0.00000000	     17.58515787	     13.78177239	     -9.46143776	     51.38797637	     89.95437384	      0.00000000	      0.00000000
      1.03000000	      1.78063215	     -3.48955869	      2.31543604	     -0.09400546	      0.88550752	      1.42966485	     24.27986001	      2.23098815	    -17.10793696	    -22.39203183	     -0.39081468	     -6.37795903	     -2.01792192	     -1.26085567	    -14.31818413	      5.73953149	      8.63101542	    -27.82326102	     -0.48560751	     -0.04520415	     -7.24576818	     -7.07257724	     -6.72037520	      6.69877514	     -4.77200869	     -3.63445869	     -9.24191679	     16.59914778	      8.59009381	     89.95437384	      0.00000000	      0.00000000	     16.83034962	     13.51130933	     -9.16004430	     51.93721580	     89.95437384	      0.00000000	      0.00000000
      1.04000000	      1.06285368	     -4.21624269	      2.49857739	     -0.07931222	      0.88570468	      1.43171958	     24.47255654	      3.08093329	    -17.28816359	    -23.02407667	     -0.40184595	     -6.14166948	     -3.34072214	     -0.85923818	    -11.91514539	      7.41953719	      9.74856010	    -31.82642074	     -0.55547583	     -3.68245831	     -8.28732028	     -7.14579386	     -5.61296602	      7.41837740	     -4.63788794	     -3.92804770	     -9.25058794	     16.93747695	      8.55078934	     89.95437384	      0.00000000	      0.00000000	     15.84276977	     13.24433931	     -8.74355660	     52.45504151	     89.95437384	      0.00000000	      0.00000000
      1.05000000	      1.01342822	     -4.29626309	      2.35519837	     -0.06435354	      0.88734975	      1.43350446	     23.80214186	      3.45272948	    -16.76527753	    -23.67508504	     -0.41320818	     -5.16351299	     -2.78888925	     -0.91766857	    -10.51541700	      7.89324473	     10.07987620	    -34.95797532	     -0.61013177	     -7.89107012	     -6.26705937	     -6.34802100	     -5.34668653	      7.48366579	     -4.00947454	     -4.17879031	     -9.28446107	     17.03167000	      8.69102961	     89.95437384	      0.00000000	      0.00000000	     15.14677803	     12.99016722	     -8.80368531	     52.56315968	     89.95437384	      0.00000000	      0.00000000
      1.06000000	      0.87817068	     -4.54441167	      2.35071487	     -0.04960684	      0.88883007	      1.43506245	     23.16121765	      3.94919550	    -16.50899589	    -24.13748222	     -0.42127854	     -4.15218230	     -2.59461421	     -0.87673464	     -8.75110343	      8.58886599	     10.09598588	    -38.19382022	     -0.66660792	    -13.12192622	     -4.45323493	     -5.50886376	     -5.00633879	      7.75057319	     -3.54844706	     -4.38347461	     -9.38073758	     17.21257616	      8.92215160	     89.95437384	      0.00000000	      0.00000000	     14.36457058	     12.66253554	     -8.66988254	     52.56115422	     89.95437384	      0.00000000	      0.00000000
      1.07000000	      0.71045859	     -4.94326613	      2.25145993	     -0.03518279	      0.89018096	      1.43697655	     22.47816765	      4.75429091	    -15.82900859	    -24.45949098	     -0.42689865	     -2.79311292	     -3.21446563	      2.83079636	     -6.80259649	      9.39643920	      9.76705601	    -41.35448634	     -0.72177195	    -18.00512423	     -1.72850063	     -8.56045222	     -4.68011137	      8.16045934	     -2.94105662	     -4.59316780	     -9.59443160	     18.16037446	      9.38347360	     89.95437384	      0.00000000	      0.00000000	     13.60192009	     12.31084601	     -8.57310007	     52.46185266	     89.95437384	      0.00000000	      0.00000000
      1.08000000	      0.87182130	     -5.39128972	      2.30481539	     -0.02081429	      0.89194331	      1.43854060	     21.24923260	      5.45999913	    -15.65676295	    -24.46314809	     -0.42696248	     -1.67443262	     -3.04213650	      2.70894899	     -5.08973223	     10.15222433	      8.98967661	    -44.56492156	     -0.77780461	    -20.37750070	      0.12954177	     -8.30016094	     -4.73979082	      8.64743086	     -2.40100997	     -4.60782753	     -9.74038476	     18.20820399	      9.68658069	     89.95437384	      0.00000000	      0.00000000	     12.95778247	     11.90088102	     -8.51045833	     52.15504079	     89.95437384	      0.00000000	      0.00000000
      1.09000000	      0.93272978	     -5.88718655	      2.28683781	     -0.00680954	      0.89327377	      1.44024249	     20.09032204	      6.19616111	    -15.71049895	    -24.38283783	     -0.42556080	     -0.54290878	     -2.61963715	      2.55901361	     -3.16238415	     10.96763330	      8.51382289	    -47.84528918	     -0.83505783	    -20.06657393	      1.77122740	     -8.32716764	     -4.73324670	      9.16534082	     -1.77527441	     -4.56320491	     -9.95197929	     18.27908126	     10.09400425	     89.95437384	      0.00000000	      0.00000000	     12.33226072	     11.48889802	     -8.47793925	     51.75446992	     89.95437384	      0.00000000	      0.00000000
      1.10000000	      0.62647995	     -6.25550117	      2.26090200	      0.00622487	      0.89386910	      1.44147681	     19.44473239	      6.60073347	    -16.16739045	    -24.36951069	     -0.42532820	      0.21723520	     -1.94095173	      2.47068073	     -0.57460940	     11.51539620	      8.01189220	    -51.27319576	     -0.89488608	    -17.84341893	      3.60264109	     -8.79621031	     -4.42767217	      9.57975054	     -1.17987206	     -4.43291799	    -10.22157111	     18.68860804	     10.49350714	     89.95437384	      0.00000000	      0.00000000	     11.83509238	     11.02122193	     -8.49998251	     51.07636592	     89.95437384	      0.00000000	      0.00000000
      1.11000000	      0.72864164	     -6.57265381	      2.15222288	      0.01951118	      0.89509316	      1.44282922	     18.12757585	      7.07583669	    -16.40313314	    -24.00574747	     -0.41897933	      1.14208023	     -0.98339236	      2.24590158	      1.40585397	     12.02570094	      7.84731494	    -54.13888065	     -0.94490172	    -15.44787320	      4.90179185	     -9.02350382	     -4.60932970	      9.92756572	     -0.43574139	     -4.23201300	    -10.52169944	     18.94375495	     11.02519734	     89.95437384	      0.00000000	      0.00000000	     11.33149260	     10.64554258	     -8.65047518	     50.42112139	     89.95437384	      0.00000000	      0.00000000
